<svg id="facebook_3_" data-name="facebook (3)" xmlns="http://www.w3.org/2000/svg" width="32.115" height="32.115" viewBox="0 0 32.115 32.115">
  <path id="Trazado_2" data-name="Trazado 2" d="M28.351,0H3.763A3.768,3.768,0,0,0,0,3.763V28.351a3.768,3.768,0,0,0,3.763,3.763H28.351a3.768,3.768,0,0,0,3.763-3.763V3.763A3.768,3.768,0,0,0,28.351,0Zm1.254,28.351a1.256,1.256,0,0,1-1.254,1.254H21.2V19.382h3.876l.64-3.889H21.2V12.8a1.85,1.85,0,0,1,1.882-1.882h2.572V7.025H23.082a5.77,5.77,0,0,0-5.769,5.781v2.686H13.548v3.889h3.765V29.606H3.763a1.256,1.256,0,0,1-1.254-1.254V3.763A1.256,1.256,0,0,1,3.763,2.509H28.351a1.256,1.256,0,0,1,1.254,1.254Z" fill="#fff"/>
</svg>
