<svg id="logotipo-de-instagram" xmlns="http://www.w3.org/2000/svg" width="33.499" height="33.499" viewBox="0 0 33.499 33.499">
  <path id="Trazado_3" data-name="Trazado 3" d="M24.254,0H9.244A9.255,9.255,0,0,0,0,9.245v15.01A9.255,9.255,0,0,0,9.244,33.5h15.01A9.255,9.255,0,0,0,33.5,24.255V9.245A9.255,9.255,0,0,0,24.254,0Zm6.273,24.255a6.28,6.28,0,0,1-6.273,6.272H9.244a6.279,6.279,0,0,1-6.272-6.272V9.245A6.279,6.279,0,0,1,9.244,2.972h15.01a6.28,6.28,0,0,1,6.273,6.272v15.01Z" fill="#fff"/>
  <path id="Trazado_4" data-name="Trazado 4" d="M49.6,30.771A8.632,8.632,0,1,0,58.232,39.4,8.642,8.642,0,0,0,49.6,30.771Zm0,14.291A5.659,5.659,0,1,1,55.26,39.4a5.666,5.666,0,0,1-5.66,5.659Zm8.994-16.811a2.178,2.178,0,1,0,1.542.638A2.188,2.188,0,0,0,58.594,28.251Z" transform="translate(-32.85 -22.653)" fill="#fff"/>
</svg>
